# xmcd
#
# Track frame offsets:
#	150
#	18958
#	39390
#	55669
#	72353
#	87625
#	100212
#	124564
#	130151
#	148048
#	156617
#	174786
#	193337
#	208295
#	230014
#
# Disc length: 3292 seconds
#
# Revision: 1
# Processed by: cddbd v1.5.1PL2 Copyright (c) Steve Scherf et al.
# Submitted via: EasyCDDAExtractor 8.1.4.1
#
DISCID=da0cda0f
DTITLE=Les Cowboys Fringants - Break syndical
DYEAR=1900
DGENRE=Country
TTITLE0=En berne
TTITLE1=La tete a Papineau
TTITLE2=Toune d'automne
TTITLE3=Heavy Metal
TTITLE4=La manifestation
TTITLE5=Break syndical
TTITLE6=L'hiver approche
TTITLE7=A polyvalente
TTITLE8=La noce
TTITLE9=Quand je r'garde
TTITLE10=Mon chum Rémi
TTITLE11=Salut mon Ron
TTITLE12=Joyeux calvaire
TTITLE13=Ruelle Laurier
TTITLE14=La toune cachée
EXTD=
EXTT0=
EXTT1=
EXTT2=
EXTT3=
EXTT4=
EXTT5=
EXTT6=
EXTT7=
EXTT8=
EXTT9=
EXTT10=
EXTT11=
EXTT12=
EXTT13=
EXTT14=
PLAYORDER=
